<svg xmlns="http://www.w3.org/2000/svg" xmlns:xlink="http://www.w3.org/1999/xlink" width="590" height="46" viewBox="0 0 590 46">
  <defs>
    <clipPath id="clip-path">
      <rect id="Rectangle_1052" data-name="Rectangle 1052" width="590" height="22" transform="translate(-1416 550)" fill="#fff"/>
    </clipPath>
  </defs>
  <g id="lines" transform="translate(-384 -163)">
    <rect id="Rectangle_1040" data-name="Rectangle 1040" width="585" height="5" transform="translate(387 163)" fill="#fff"/>
    <rect id="Rectangle_1041" data-name="Rectangle 1041" width="585" height="5" transform="translate(387 204)" fill="#fff"/>
    <g id="Mask_Group_21" data-name="Mask Group 21" transform="translate(1800 -375)" clip-path="url(#clip-path)">
      <g id="layer1" transform="translate(-826 485.691) rotate(90)">
        <g id="g1030" transform="translate(0)">
          <g id="g1032">
            <path id="path1034" d="M19.566,0,0,99.573H6.424L24.632,6.909,19.566,0" transform="translate(309.2 213.488)" fill="#fff"/>
            <path id="path1036" d="M26.619,20.725l-1.452-1.979-3.614-4.929L16.487,6.908,14.2,3.786,11.421,0,0,58.122H6.424l8.209-41.777L19.7,23.254,12.847,58.122h6.423l7.348-37.4" transform="translate(347.742 254.939)" fill="#fff"/>
            <path id="path1038" d="M19.217,18.036l-3.093-4.218L11.057,6.908,8.246,3.076,5.991,0,4.34,8.4l-.481.656.277.378L0,30.489H6.424L9.2,16.346l5.066,6.908-1.422,7.235h6.424l1.918-9.763-1.973-2.69" transform="translate(373.436 282.572)" fill="#fff"/>
            <path id="path1040" d="M32.05,20.725l-1.662-2.266-3.4-4.642L21.917,6.908,19.417,3.5,16.851,0,0,85.756H6.424l13.639-69.41,5.066,6.908-12.282,62.5h6.424L32.05,20.725" transform="translate(322.047 227.306)" fill="#fff"/>
            <path id="path1042" d="M0,23.369l5.066,6.908L63.956,8.76V0L0,23.369" transform="translate(333.153 184.137)" fill="#fff"/>
            <path id="path1044" d="M0,4.857l5.066,6.908,8.228-3.007V0L0,4.857" transform="translate(383.815 271.733)" fill="#fff"/>
            <path id="path1046" d="M3.262,24.114l1.8,2.461,5.066,6.908,4.1,5.59.966,1.318L53.824,26.278V17.519L17.053,30.954l-5.066-6.908L53.824,8.76V0L0,19.666l3.262,4.448" transform="translate(343.285 201.656)" fill="#fff"/>
            <path id="path1048" d="M17.053,23.55l-5.066-6.908L33.559,8.76V0L0,12.262l3.508,4.785L5.066,19.17l5.066,6.908,4.346,5.927.72.982,18.36-6.709v-8.76L17.053,23.55" transform="translate(363.55 236.694)" fill="#fff"/>
            <path id="path1050" d="M0,1.155,3.162,5.467V0Z" transform="translate(393.947 289.251)" fill="#fff"/>
            <path id="path1052" d="M38.5,0,31.583,2.529,0,14.068H23.973l5.753-2.1-.413,2.1h6.424l.911-4.631L38.5,0" transform="translate(267.047 298.993)" fill="#fff"/>
            <path id="path1054" d="M34.793,53.6l-.017-.024v0L19.437,32.659,17.583,42.1l5.229,7.13L8.776,54.36l7.47-38.015L29.782,34.8h0L41.712,51.073l6.919-2.531-5.065-6.906L18.1,6.908,13.034,0,11.179,9.437,1.855,56.892,0,66.33,6.921,63.8,34.793,53.6" transform="translate(331.274 134.241)" fill="#fff"/>
            <path id="path1056" d="M4.38,0,2.526,9.436,0,22.289H6.424l1.168-5.943,4.359,5.943h8.775L9.446,6.908,4.38,0" transform="translate(141.374 290.773)" fill="#fff"/>
            <path id="path1058" d="M0,2.855H2.655L.561,0Z" transform="translate(2.022 310.206)" fill="#fff"/>
            <path id="path1060" d="M52.45,0,0,19.164v8.76L50.6,9.437l82.683,112.749-5.089,25.9h6.424l5.586-28.43L52.45,0" transform="translate(0 164.973)" fill="#fff"/>
            <path id="path1062" d="M30.2,0,0,11.033V16.5l0,.006L1.9,19.1,6.971,26l4,5.46,1.063,1.449,12.6-4.6,4.79,6.532H38.2L26.488,18.874l-12.6,4.6L8.825,16.568,28.343,9.436,46.974,34.843h8.775L30.2,0" transform="translate(0 278.219)" fill="#fff"/>
            <path id="path1064" d="M48.741,0,0,17.809v8.76L46.887,9.437l72.551,98.933-4.1,20.844h6.424l4.593-23.373L48.741,0" transform="translate(0 183.847)" fill="#fff"/>
            <path id="path1066" d="M38.967,35.187,17.551,5.982,13.164,0,8.776,5.982,4.389,11.965,0,17.948H0l4.388,5.983h0L18.206,42.773l-.121.615h6.424l.617-3.143-16.35-22.3,4.388-5.983,18.883,25.75-1.114,5.672h6.424l1.611-8.2" transform="translate(45.868 269.674)" fill="#fff"/>
            <path id="path1068" d="M39.469,28.312,63.419,60.97h0l4.388,5.982L80.968,49l-.292-.4-4.1-5.584L45.032,0,0,16.455v8.759L43.178,9.437,72.193,49l-4.388,5.983L41.324,18.874,0,33.973v8.76L39.469,28.312" transform="translate(0 202.721)" fill="#fff"/>
            <path id="path1070" d="M37.094,35.187h0l4.387,5.983h0l4.387-5.983L50.256,29.2l4.388-5.983-4.388-5.983L37.615,0,0,13.744V22.5L35.76,9.437,45.869,23.221,41.481,29.2l-7.575-10.33L0,31.263v8.759l32.052-11.71,5.042,6.875" transform="translate(0 240.47)" fill="#fff"/>
            <path id="path1072" d="M40.617,37.437,17.551,5.982,13.164,0,8.776,5.982,4.389,11.965,0,17.948H0l4.388,5.983h0L19.855,45.023,17.747,55.752h6.424l2.605-13.258-18-24.545,4.388-5.983,20.533,28-3.1,15.786h6.423l3.6-18.315" transform="translate(71.9 257.309)" fill="#fff"/>
            <path id="path1074" d="M87.75,178.82l11.785-4.306v-8.76l-9.93,3.628L6.921,56.633,18.049,0H11.625L0,59.161,87.75,178.82" transform="translate(297.575 0)" fill="#fff"/>
            <path id="path1076" d="M17.55,5.984h0L13.163,0,0,17.95l.292.4,4.1,5.584L35.936,66.954l4.367-1.6V56.6l-2.513.919L8.775,17.95l4.388-5.983L39.645,48.08l.658-.24V37.012L17.55,5.984" transform="translate(356.806 74.117)" fill="#fff"/>
            <path id="path1078" d="M13.162,0,8.775,5.984,4.388,11.967,0,17.95l4.388,5.983,9.591,13.078V25.045l-5.2-7.1,4.388-5.983.816,1.113V1.111L13.163,0h0" transform="translate(383.131 62.152)" fill="#fff"/>
            <path id="path1080" d="M0,28.817,16.487,51.3V39.334L6.921,26.288,12.086,0H5.662L0,28.817" transform="translate(380.622 0)" fill="#fff"/>
            <path id="path1082" d="M2.646,17.076V0L0,13.467Z" transform="translate(394.463 10.292)" fill="#fff"/>
            <path id="path1084" d="M0,49.047,23.066,80.5l4.388,5.983L31.841,80.5l4.388-5.982,4.388-5.983h0L36.23,62.551h0L20.762,41.461,28.909,0H22.485L13.841,43.989l18,24.546-4.388,5.983-20.533-28L16.061,0H9.637L0,49.047" transform="translate(325.257 0)" fill="#fff"/>
            <path id="path1086" d="M0,38.932l21.417,29.2L25.8,74.119l4.388-5.983,4.388-5.982,4.387-5.983h0L34.58,50.186h0L20.762,31.345,26.921,0H20.5L13.841,33.874l16.35,22.3L25.8,62.153,6.921,36.4,14.074,0H7.65L0,38.932" transform="translate(352.939 0)" fill="#fff"/>
            <path id="path1088" d="M77.617,159.946l8.076-2.951v-8.76l-6.221,2.273L6.921,51.576,17.055,0H10.631L0,54.1,77.617,159.946" transform="translate(311.416 0)" fill="#fff"/>
            <path id="path1090" d="M12.149,17.038,6.921,9.908,0,12.437,15.34,33.354l0,0,.018.024L21.924,0H15.5L12.149,17.038" transform="translate(280.86 0)" fill="#fff"/>
            <path id="path1092" d="M0,3.7l5.066,6.908L30.533,45.34,35.6,52.246l1.856-9.435L25.523,26.542h0L11.987,8.084,34.111,0H10.138L6.921,1.176,0,3.7" transform="translate(256.909 0)" fill="#fff"/>
            <path id="path1094" d="M6.921,156.206,36.257,6.908,31.191,0,0,158.735,71.4,256.1h8.775l-73.259-99.9" transform="translate(99.02 56.958)" fill="#fff"/>
            <path id="path1096" d="M74.311,0,0,27.152H23.973l55.4-20.243L74.311,0" transform="translate(223.798 285.909)" fill="#fff"/>
            <path id="path1098" d="M180.182,208.227l-3.262-4.448-1.8-2.46-5.066-6.908-4.1-5.59-.967-1.318-81.8,29.889L54.165,177.824l4.388-5.983,26.483,36.113,74.882-27.361-3.508-4.784-1.558-2.124-5.066-6.908-4.346-5.927-.72-.981L90.6,179.642,80.489,165.858l4.388-5.982,7.575,10.329,47.2-17.245-5.066-6.909L94.307,160.768l-5.042-6.875h0l-4.388-5.983h0l-4.388,5.983L76.1,159.876l-4.388,5.982,4.388,5.983L88.743,189.08l54.12-19.775,5.066,6.908-61.041,22.3L62.94,165.858h0l-4.388-5.982L45.39,177.824l.293.4,4.095,5.584,31.549,43.021,81.8-29.889,5.066,6.908L79.471,236.266,6.921,137.332,30.694,16.346l5.066,6.909L13.841,134.8l23.066,31.454,4.388,5.982,4.388-5.982,4.387-5.983,4.388-5.983h0l-4.388-5.983h0L34.6,127.217,50.958,43.98l5.066,6.908-14.5,73.8,21.417,29.2,4.388,5.983,4.387-5.983L76.1,147.91l4.388-5.983h0L76.1,135.942h0L62.285,117.1l8.938-45.49,5.066,6.909-7.083,36.052,26.955,36.758,33.359-12.189-3.166-4.317-1.9-2.591-5.066-6.908-4-5.46-1.063-1.449-12.6,4.6L89.967,106.988l1.521-7.741L102.306,114l6.919-2.531L93.342,89.81l-.991-1.35L88.276,82.9l-5.229,26.615L99.87,132.457l12.6-4.6,5.067,6.908-19.518,7.131L76.126,112.045,83.21,75.993,81.237,73.3l-3.093-4.218-5.066-6.908-2.811-3.833-2.256-3.076-1.651,8.4-.481.656.277.378L55.364,119.631l16.35,22.3-4.387,5.983L48.444,122.16l14.5-73.8L61.493,46.38l-3.614-4.929-5.066-6.908-2.29-3.122-2.777-3.786L27.682,129.746l18,24.545-4.388,5.983-20.533-28L42.68,20.726,41.018,18.46l-3.4-4.642L32.548,6.909l-2.5-3.41L27.482,0,0,139.861,75.113,242.287H86.963l93.218-34.06" transform="translate(112.862 70.774)" fill="#fff"/>
            <path id="path1100" d="M116.405,0,0,42.532l5.066,6.908,109.485-40,82.683,112.75L167.9,271.485l5.066,6.908,31.191-158.735L116.405,0" transform="translate(134.599 8.442)" fill="#fff"/>
            <path id="path1102" d="M102.564,0,0,37.476l3.262,4.448,1.8,2.461,5.066,6.908,4.1,5.59L15.2,58.2,97,28.312l29.016,39.567-4.387,5.983L95.147,37.749,20.264,65.109l3.509,4.784,1.557,2.124L30.4,78.926l4.347,5.927.72.982L89.584,66.06,99.692,79.845,95.3,85.827,87.729,75.5l-47.2,17.245L45.6,99.651,85.875,84.934l5.042,6.876h0L95.3,97.794h0l4.388-5.983,4.387-5.983,4.388-5.982-4.388-5.983L91.438,56.623,37.317,76.4l-5.066-6.909,61.041-22.3,23.95,32.658h0l4.388,5.983,13.163-17.95-.292-.4L130.4,61.9,98.856,18.874l-81.8,29.889-5.066-6.908L100.71,9.437l72.551,98.933L149.488,229.356l-5.066-6.908L166.34,110.9,143.274,79.445l-4.388-5.983L134.5,79.445l-4.388,5.983-4.388,5.983h0l4.387,5.983h0l15.467,21.091-16.355,83.238-5.066-6.908,14.5-73.8-21.417-29.2-4.388-5.983-4.388,5.983-4.388,5.983-4.387,5.983h0l4.388,5.983h0L117.9,128.6l-8.938,45.49-5.066-6.909,7.084-36.052L84.02,94.371,50.662,106.56l3.166,4.317,1.9,2.592,5.066,6.908,4,5.46,1.063,1.449,12.6-4.6,11.757,16.032-1.521,7.74L77.875,131.7l-6.919,2.531,15.883,21.658.99,1.35,4.076,5.558,5.229-26.615-16.823-22.94-12.6,4.6-5.066-6.908,19.518-7.131,21.889,29.849L96.972,169.71l1.973,2.691,3.093,4.218,5.066,6.909,2.81,3.833,2.256,3.076,1.651-8.4.481-.656-.277-.378,10.792-54.927-16.35-22.3,4.388-5.983,18.884,25.75-14.5,73.8,1.452,1.979,3.614,4.929,5.066,6.908,2.29,3.122,2.776,3.786L152.5,115.957l-18-24.545,4.387-5.983,20.533,28L137.5,224.977l1.662,2.266,3.4,4.642,5.067,6.908,2.5,3.409,2.566,3.5,27.482-139.86L102.564,0" transform="translate(144.731 27.316)" fill="#fff"/>
            <path id="path1104" d="M6.921,15.244,0,17.773l5.066,6.908L30.533,59.409,35.6,66.315l1.856-9.435L25.523,40.611h0L11.987,22.153,39.864,11.967,36.1,31.106l-5.229-7.13L23.95,26.5,39.29,47.424l0,0,.017.024L46.785,9.438,48.642,0,41.721,2.529,6.921,15.244" transform="translate(58.355 142.462)" fill="#fff"/>
            <path id="path1106" d="M0,44.041l6.921-2.532L34.793,31.314l-.018-.024,0,0L19.437,10.37l-1.855,9.437,5.228,7.13L8.776,32.071,15.077,0H8.653l-6.8,34.6L0,44.04" transform="translate(132.72 0)" fill="#fff"/>
            <path id="path1108" d="M9.178,12.514h0l11.931,16.27,6.919-2.531-5.065-6.907L8.775,0H0L9.178,12.514" transform="translate(153.324 0)" fill="#fff"/>
            <path id="path1110" d="M99.555,0,0,36.376v8.76L104.621,6.908,99.555,0" transform="translate(0 129.379)" fill="#fff"/>
            <path id="path1112" d="M3.051,29.212,57.171,9.437l5.066,6.908L1.2,38.649,0,37.018V47.846l74.224-27.12-3.508-4.785-1.558-2.123L64.092,6.909,59.745.982,59.026,0,4.905,19.775,0,13.086V25.052l3.051,4.16" transform="translate(0 74.111)" fill="#fff"/>
            <path id="path1114" d="M6.76,24.154,53.96,6.908,48.893,0,8.614,14.717,3.572,7.841h0L0,2.968V14.937l6.76,9.217" transform="translate(0 60.295)" fill="#fff"/>
            <path id="path1116" d="M10.468,65.574,43.827,53.386l-3.166-4.317-1.9-2.591L33.695,39.57l-4-5.46-1.063-1.449-12.6,4.6L4.274,21.231,5.8,13.49,16.613,28.242l6.919-2.531L7.65,4.053,6.659,2.7,4.677,0H2.022L0,10.292V27.368L14.177,46.7l12.6-4.6,5.066,6.908L12.323,56.138,0,39.334V51.3L10.468,65.574" transform="translate(0 0)" fill="#fff"/>
            <path id="path1118" d="M91.227,16.277l-1.8-2.461L84.356,6.908l-4.1-5.59L79.29,0,0,28.971v8.76L77.436,9.437,82.5,16.346,0,46.49v8.76L94.489,20.725l-3.262-4.448" transform="translate(0 101.745)" fill="#fff"/>
            <path id="path1120" d="M5.067,130.3,30.671,0H24.247L0,123.4,5.067,130.3" transform="translate(103.942 0)" fill="#fff"/>
            <path id="path1122" d="M0,95.762l1.662,2.266,3.4,4.642,5.066,6.908,2.5,3.409,2.566,3.5L38.088,0H31.664L11.987,100.142,6.921,93.233,25.24,0H18.817L0,95.762" transform="translate(83.678 0)" fill="#fff"/>
            <path id="path1124" d="M7.084,4.442,0,40.495l1.973,2.69L5.066,47.4l5.066,6.908,2.811,3.832L15.2,61.221l1.651-8.4.481-.656-.277-.379L27.228,0H20.8L11.987,44.874,6.92,37.966,14,1.914,12.6,0H3.826L7.084,4.442" transform="translate(43.149 0)" fill="#fff"/>
            <path id="path1126" d="M17.737,17.24,6.919,2.489,0,5.02,15.883,26.678l.99,1.351,4.076,5.558L26.178,6.971,21.066,0H12.291l6.967,9.5-1.521,7.74" transform="translate(17.133 0)" fill="#fff"/>
            <path id="path1128" d="M0,68.129l1.451,1.979,3.615,4.929,5.066,6.908,2.289,3.122L15.2,88.854,32.658,0H26.234L11.987,72.508,6.92,65.6,19.81,0H13.387L0,68.129" transform="translate(63.413 0)" fill="#fff"/>
            <path id="path1130" d="M77.347,0H53.374L18.2,12.852,8.775,0H0L16.345,22.289,77.347,0" transform="translate(170.425 0)" fill="#fff"/>
            <path id="path1132" d="M11.851,0H0L2.5,3.415Z" transform="translate(187.974 0)" fill="#fff"/>
            <path id="path1134" d="M19.566,0,0,99.573H6.424L24.632,6.908,19.566,0" transform="translate(309.2 526.55)" fill="#fff"/>
            <path id="path1136" d="M26.619,20.726l-1.452-1.98-3.614-4.929L16.487,6.908,14.2,3.786,11.421,0,0,58.123H6.424l8.209-41.777L19.7,23.255,12.847,58.123h6.423l7.348-37.4" transform="translate(347.742 568)" fill="#fff"/>
            <path id="path1138" d="M19.217,18.035l-3.093-4.218L11.057,6.908,8.246,3.076,5.991,0,4.34,8.4l-.481.656.277.378L0,30.489H6.424L9.2,16.346l5.066,6.908-1.422,7.235h6.424l1.918-9.764-1.973-2.69" transform="translate(373.436 595.634)" fill="#fff"/>
            <path id="path1140" d="M32.05,20.725l-1.662-2.266-3.4-4.642L21.917,6.908,19.417,3.5,16.851,0,0,85.756H6.424L20.063,16.346l5.066,6.908-12.282,62.5h6.424L32.05,20.725" transform="translate(322.047 540.367)" fill="#fff"/>
            <path id="path1142" d="M0,23.368l5.066,6.908L63.956,8.759V0L0,23.368" transform="translate(333.153 497.199)" fill="#fff"/>
            <path id="path1144" d="M0,4.857l5.066,6.908L13.294,8.76V0L0,4.857" transform="translate(383.815 584.794)" fill="#fff"/>
            <path id="path1146" d="M3.262,24.114l1.8,2.46,5.066,6.908,4.1,5.591.966,1.317L53.824,26.279v-8.76L17.053,30.955l-5.066-6.908L53.824,8.76V0L0,19.666l3.262,4.448" transform="translate(343.285 514.718)" fill="#fff"/>
            <path id="path1148" d="M17.053,23.55l-5.066-6.908L33.559,8.76V0L0,12.262l3.508,4.784L5.066,19.17l5.066,6.908,4.346,5.927.72.981,18.36-6.709v-8.76L17.053,23.55" transform="translate(363.55 549.756)" fill="#fff"/>
            <path id="path1150" d="M0,1.155,3.162,5.467V0Z" transform="translate(393.947 602.313)" fill="#fff"/>
            <path id="path1152" d="M38.5,0,31.583,2.529,0,14.069H23.973l5.753-2.1-.413,2.1h6.424l.911-4.631L38.5,0" transform="translate(267.047 612.054)" fill="#fff"/>
            <path id="path1154" d="M34.793,53.6l-.017-.024v0L19.437,32.659,17.583,42.1l5.229,7.13L8.776,54.36l7.47-38.014L29.782,34.8h0L41.712,51.073l6.919-2.53-5.065-6.907L18.1,6.908,13.034,0,11.179,9.437,1.855,56.891,0,66.33,6.921,63.8,34.793,53.6" transform="translate(331.274 447.303)" fill="#fff"/>
            <path id="path1156" d="M4.38,0,2.526,9.437,0,22.289H6.424l1.168-5.944,4.359,5.944h8.775L9.446,6.908,4.38,0" transform="translate(141.374 603.834)" fill="#fff"/>
            <path id="path1158" d="M0,2.856H2.655L.561,0Z" transform="translate(2.022 623.268)" fill="#fff"/>
            <path id="path1160" d="M52.45,0,0,19.165v8.759L50.6,9.437l82.683,112.75-5.089,25.9h6.424l5.586-28.431L52.45,0" transform="translate(0 478.034)" fill="#fff"/>
            <path id="path1162" d="M30.2,0,0,11.033V16.5l0,.005L1.9,19.1,6.971,26l4,5.46,1.063,1.449,12.6-4.6,4.79,6.532H38.2L26.488,18.874l-12.6,4.6L8.825,16.568,28.343,9.437,46.974,34.844h8.775L30.2,0" transform="translate(0 591.28)" fill="#fff"/>
            <path id="path1164" d="M48.741,0,0,17.809v8.76L46.887,9.437l72.551,98.933-4.1,20.845h6.424l4.593-23.373L48.741,0" transform="translate(0 496.909)" fill="#fff"/>
            <path id="path1166" d="M38.967,35.187,17.551,5.983,13.164,0,8.776,5.983,4.389,11.966,0,17.949H0l4.388,5.983h0L18.206,42.773l-.121.615h6.424l.618-3.144-16.35-22.3,4.388-5.983,18.883,25.75-1.114,5.672h6.424l1.611-8.2" transform="translate(45.868 582.735)" fill="#fff"/>
            <path id="path1168" d="M39.469,28.311,63.419,60.97h0l4.388,5.983L80.968,49l-.292-.4-4.1-5.584L45.032,0,0,16.454v8.76L43.178,9.437,72.193,49l-4.388,5.983L41.324,18.874,0,33.973v8.76L39.469,28.311" transform="translate(0 515.783)" fill="#fff"/>
            <path id="path1170" d="M37.094,35.187h0l4.387,5.983h0l4.387-5.983L50.256,29.2l4.388-5.983-4.388-5.983L37.615,0,0,13.743V22.5L35.76,9.437,45.869,23.221,41.481,29.2l-7.575-10.33L0,31.263v8.76L32.052,28.312l5.042,6.876" transform="translate(0 553.531)" fill="#fff"/>
            <path id="path1172" d="M40.617,37.437,17.551,5.983,13.164,0,8.776,5.983,4.389,11.966,0,17.948H0l4.388,5.983h0L19.855,45.023l-2.108,10.73h6.424l2.605-13.258-18-24.546,4.388-5.982,20.533,28-3.1,15.787h6.423l3.6-18.316" transform="translate(71.9 570.371)" fill="#fff"/>
            <path id="path1174" d="M87.75,178.82l11.785-4.306v-8.76l-9.93,3.629L6.921,56.633,18.049,0H11.625L0,59.162,87.75,178.82" transform="translate(297.575 313.061)" fill="#fff"/>
            <path id="path1176" d="M17.55,5.984h0L13.163,0,0,17.95l.292.4,4.1,5.584L35.936,66.954l4.367-1.6V56.6l-2.513.918L8.775,17.95l4.388-5.983L39.645,48.079l.658-.24V37.011L17.55,5.984" transform="translate(356.806 387.179)" fill="#fff"/>
            <path id="path1178" d="M13.162,0,8.775,5.984,4.388,11.967,0,17.95l4.388,5.982,9.591,13.078V25.046l-5.2-7.1,4.388-5.983.816,1.112V1.111L13.163,0h0" transform="translate(383.131 375.213)" fill="#fff"/>
            <path id="path1180" d="M0,28.817,16.487,51.3V39.334L6.921,26.288,12.086,0H5.662L0,28.817" transform="translate(380.622 313.061)" fill="#fff"/>
            <path id="path1182" d="M2.646,17.076V0L0,13.468Z" transform="translate(394.463 323.354)" fill="#fff"/>
            <path id="path1184" d="M0,49.047,23.066,80.5l4.388,5.983L31.841,80.5l4.388-5.983,4.388-5.983h0L36.23,62.551h0L20.762,41.461,28.909,0H22.485L13.841,43.99l18,24.545-4.388,5.983-20.533-28L16.061,0H9.637L0,49.047" transform="translate(325.257 313.061)" fill="#fff"/>
            <path id="path1186" d="M0,38.932l21.417,29.2L25.8,74.119l4.388-5.983,4.388-5.983,4.387-5.983h0L34.58,50.187h0L20.762,31.346,26.921,0H20.5L13.841,33.875l16.35,22.3L25.8,62.153,6.921,36.4,14.074,0H7.65L0,38.932" transform="translate(352.939 313.061)" fill="#fff"/>
            <path id="path1188" d="M77.617,159.946,85.693,157v-8.759l-6.221,2.273L6.921,51.576,17.055,0H10.631L0,54.1,77.617,159.946" transform="translate(311.416 313.061)" fill="#fff"/>
            <path id="path1190" d="M12.149,17.038,6.921,9.908,0,12.437,15.34,33.355l0,0,.018.024L21.924,0H15.5L12.149,17.038" transform="translate(280.86 313.061)" fill="#fff"/>
            <path id="path1192" d="M0,3.7l5.066,6.908L30.533,45.34,35.6,52.247l1.856-9.435L25.523,26.543h0L11.987,8.084,34.111,0H10.138L6.921,1.176,0,3.7" transform="translate(256.909 313.061)" fill="#fff"/>
            <path id="path1194" d="M6.921,156.206,36.257,6.908,31.191,0,0,158.735,71.4,256.1h8.775l-73.259-99.9" transform="translate(99.02 370.02)" fill="#fff"/>
            <path id="path1196" d="M74.311,0,0,27.152H23.973l55.4-20.244L74.311,0" transform="translate(223.798 598.972)" fill="#fff"/>
            <path id="path1198" d="M180.182,208.227l-3.262-4.448-1.8-2.46-5.066-6.908-4.1-5.591-.967-1.318L83.18,217.39,54.165,177.824l4.388-5.982,26.483,36.112,74.882-27.361-3.508-4.784-1.558-2.124-5.066-6.908-4.346-5.927-.72-.981L90.6,179.642,80.489,165.858l4.388-5.983,7.575,10.33,47.2-17.246-5.066-6.908L94.307,160.768l-5.042-6.876h0l-4.388-5.983h0l-4.388,5.983L76.1,159.875l-4.388,5.983,4.388,5.983L88.743,189.08l54.12-19.775,5.066,6.908-61.041,22.3L62.94,165.858h0l-4.388-5.983L45.39,177.824l.293.4,4.095,5.584,31.549,43.021,81.8-29.889,5.066,6.909L79.471,236.265,6.921,137.331,30.694,16.346l5.066,6.908L13.841,134.8l23.066,31.454,4.388,5.983,4.388-5.983,4.387-5.983,4.388-5.983h0l-4.388-5.982h0L34.6,127.217,50.958,43.979l5.066,6.908-14.5,73.8,21.417,29.2,4.388,5.983,4.387-5.983,4.388-5.983,4.388-5.983h0L76.1,135.942h0L62.285,117.1l8.938-45.489,5.066,6.908-7.083,36.052,26.955,36.758,33.359-12.188-3.166-4.317-1.9-2.592-5.066-6.908-4-5.459-1.063-1.449-12.6,4.6L89.967,106.987l1.521-7.74L102.306,114l6.919-2.531L93.342,89.81l-.991-1.351L88.276,82.9l-5.229,26.615,16.823,22.94,12.6-4.6,5.067,6.908-19.518,7.131L76.126,112.045,83.21,75.992,81.237,73.3l-3.093-4.218-5.066-6.908-2.811-3.833-2.256-3.076-1.651,8.4-.481.655.277.379L55.364,119.631l16.35,22.3-4.387,5.983L48.444,122.16l14.5-73.8-1.452-1.98L57.879,41.45l-5.066-6.908-2.29-3.122-2.777-3.787L27.682,129.745l18,24.545-4.388,5.983-20.533-28L42.68,20.725l-1.662-2.266-3.4-4.642L32.548,6.908,30.048,3.5,27.482,0,0,139.86,75.113,242.287H86.963l93.218-34.06" transform="translate(112.862 383.836)" fill="#fff"/>
            <path id="path1200" d="M116.405,0,0,42.533l5.066,6.908,109.485-40,82.683,112.75L167.9,271.485l5.066,6.908,31.191-158.735L116.405,0" transform="translate(134.599 321.503)" fill="#fff"/>
            <path id="path1202" d="M102.564,0,0,37.476l3.262,4.448,1.8,2.461,5.066,6.908,4.1,5.59L15.2,58.2,97,28.311l29.016,39.567-4.387,5.983L95.147,37.748,20.264,65.109l3.509,4.785,1.557,2.123L30.4,78.926l4.347,5.927.72.981L89.584,66.06,99.692,79.844,95.3,85.827,87.729,75.5l-47.2,17.246L45.6,99.651,85.875,84.934l5.042,6.876h0L95.3,97.794h0l4.388-5.982,4.387-5.983,4.388-5.983-4.388-5.983L91.438,56.623,37.317,76.4l-5.066-6.908,61.041-22.3,23.95,32.659h0l4.388,5.983,13.163-17.95-.292-.4L130.4,61.9,98.856,18.875l-81.8,29.889-5.066-6.908L100.71,9.438l72.551,98.933L149.488,229.357l-5.066-6.908L166.34,110.9,143.274,79.445l-4.388-5.983L134.5,79.445l-4.388,5.983-4.388,5.982h0l4.387,5.983h0l15.467,21.091-16.355,83.238-5.066-6.908,14.5-73.8-21.417-29.2-4.388-5.983-4.388,5.983-4.388,5.982-4.387,5.983h0l4.388,5.983h0L117.9,128.6l-8.938,45.489-5.066-6.908,7.084-36.052L84.02,94.371,50.662,106.559l3.166,4.317,1.9,2.591,5.066,6.908,4,5.46,1.063,1.449,12.6-4.6,11.757,16.033-1.521,7.74L77.875,131.7l-6.919,2.532,15.883,21.658.99,1.351,4.076,5.558,5.229-26.615-16.823-22.94-12.6,4.6-5.066-6.908,19.518-7.131,21.889,29.849L96.972,169.71l1.973,2.69,3.093,4.218,5.066,6.908,2.81,3.833,2.256,3.076,1.651-8.4.481-.656-.277-.378,10.792-54.926-16.35-22.3,4.388-5.983,18.884,25.75-14.5,73.8,1.452,1.98,3.614,4.928,5.066,6.908,2.29,3.122,2.776,3.786L152.5,115.957l-18-24.546,4.387-5.982,20.533,28L137.5,224.977l1.662,2.266,3.4,4.642,5.067,6.908,2.5,3.409,2.566,3.5,27.482-139.861L102.564,0" transform="translate(144.731 340.378)" fill="#fff"/>
            <path id="path1204" d="M6.921,15.244,0,17.773l5.066,6.908L30.533,59.409,35.6,66.316l1.856-9.435L25.523,40.611h0L11.987,22.153,39.864,11.967,36.1,31.107l-5.229-7.13L23.95,26.506,39.29,47.424l0,0,.017.024L46.785,9.438,48.642,0,41.721,2.529,6.921,15.244" transform="translate(58.355 455.524)" fill="#fff"/>
            <path id="path1206" d="M0,44.041,6.921,41.51,34.793,31.315l-.018-.024,0,0L19.437,10.371l-1.855,9.437,5.228,7.13L8.776,32.071,15.077,0H8.653l-6.8,34.6L0,44.041" transform="translate(132.72 313.061)" fill="#fff"/>
            <path id="path1208" d="M9.178,12.515h0L21.108,28.784l6.919-2.531-5.065-6.906L8.775,0H0L9.178,12.515" transform="translate(153.324 313.061)" fill="#fff"/>
            <path id="path1210" d="M99.555,0,0,36.375v8.76L104.621,6.908,99.555,0" transform="translate(0 442.441)" fill="#fff"/>
            <path id="path1212" d="M3.051,29.211,57.171,9.437l5.066,6.908L1.2,38.648,0,37.017V47.845l74.224-27.12-3.508-4.784-1.558-2.124L64.092,6.908,59.745.982,59.026,0,4.905,19.774,0,13.086V25.051l3.051,4.16" transform="translate(0 387.173)" fill="#fff"/>
            <path id="path1214" d="M6.76,24.154,53.96,6.908,48.893,0,8.614,14.717,3.572,7.841h0L0,2.968V14.936l6.76,9.218" transform="translate(0 373.357)" fill="#fff"/>
            <path id="path1216" d="M10.468,65.575,43.827,53.386,40.661,49.07l-1.9-2.592L33.695,39.57l-4-5.459-1.063-1.449-12.6,4.6L4.274,21.231,5.8,13.491,16.613,28.243l6.919-2.531L7.65,4.053,6.659,2.7,4.677,0H2.022L0,10.292V27.368L14.177,46.7l12.6-4.6,5.066,6.908L12.323,56.138,0,39.334V51.3L10.468,65.575" transform="translate(0 313.061)" fill="#fff"/>
            <path id="path1218" d="M91.227,16.277l-1.8-2.46L84.356,6.908l-4.1-5.59L79.29,0,0,28.972v8.76L77.436,9.437,82.5,16.346,0,46.491V55.25L94.489,20.726l-3.262-4.449" transform="translate(0 414.807)" fill="#fff"/>
            <path id="path1220" d="M5.067,130.3,30.671,0H24.247L0,123.4,5.067,130.3" transform="translate(103.942 313.061)" fill="#fff"/>
            <path id="path1222" d="M0,95.762l1.662,2.266,3.4,4.642,5.066,6.909,2.5,3.409,2.566,3.5L38.088,0H31.664L11.987,100.142,6.921,93.234,25.24,0H18.817L0,95.762" transform="translate(83.678 313.061)" fill="#fff"/>
            <path id="path1224" d="M7.084,4.443,0,40.5l1.973,2.69L5.066,47.4l5.066,6.908,2.811,3.833L15.2,61.221l1.651-8.4.481-.656-.277-.378L27.228,0H20.8L11.987,44.875,6.92,37.967,14,1.914,12.6,0H3.826L7.084,4.443" transform="translate(43.149 313.061)" fill="#fff"/>
            <path id="path1226" d="M17.737,17.241,6.919,2.489,0,5.02,15.883,26.678l.99,1.35,4.076,5.558L26.178,6.972,21.066,0H12.291l6.967,9.5-1.521,7.74" transform="translate(17.133 313.061)" fill="#fff"/>
            <path id="path1228" d="M0,68.129l1.451,1.98,3.615,4.928,5.066,6.908,2.289,3.122L15.2,88.854,32.658,0H26.234L11.987,72.508,6.92,65.6,19.81,0H13.387L0,68.129" transform="translate(63.413 313.061)" fill="#fff"/>
            <path id="path1230" d="M77.347,0H53.374L18.2,12.852,8.775,0H0L16.345,22.289,77.347,0" transform="translate(170.425 313.061)" fill="#fff"/>
            <path id="path1232" d="M11.851,0H0L2.5,3.416Z" transform="translate(187.974 313.061)" fill="#fff"/>
          </g>
        </g>
      </g>
    </g>
  </g>
</svg>
