<svg xmlns="http://www.w3.org/2000/svg" xmlns:xlink="http://www.w3.org/1999/xlink" width="1366" height="165" viewBox="0 0 1366 165">
  <defs>
    <clipPath id="clip-path">
      <rect id="Rectangle_1077" data-name="Rectangle 1077" width="1366" height="165" transform="translate(-2163 -2886)" fill="#f15f43"/>
    </clipPath>
  </defs>
  <g id="top_bar_bg" transform="translate(2163 2886)" clip-path="url(#clip-path)">
    <g id="Group_303" data-name="Group 303" transform="translate(581.344 -4631.526)">
      <rect id="Rectangle_1074" data-name="Rectangle 1074" width="1366" height="900" transform="translate(-2744 1654)" fill="#f15f43"/>
      <g id="layer1" transform="translate(-1343.75 1193.444) rotate(90)" opacity="0.04">
        <g id="g1030" transform="translate(-19.403 7.594)">
          <g id="g1032">
            <path id="path1034" d="M278.925-215.056,219.748,5.8h19.429l55.071-205.531-15.323-15.324" transform="translate(765.589 693.423)" fill="#081536"/>
            <path id="path1036" d="M327.651-147.485l-4.391-4.39-10.931-10.933L297.005-178.13l-6.926-6.924-8.4-8.4L247.139-64.536h19.429L291.4-157.2l15.323,15.323L286-64.536h19.428l22.226-82.948" transform="translate(865.031 764.277)" fill="#081536"/>
            <path id="path1038" d="M323.522-139.048l-9.356-9.356-15.323-15.324-8.5-8.5-6.822-6.822-4.994,18.638-1.455,1.455.839.839L265.4-111.426h19.429l8.406-31.369,15.323,15.323-4.3,16.046h19.429l5.8-21.656-5.966-5.966" transform="translate(924.485 811.472)" fill="#081536"/>
            <path id="path1040" d="M325.815-161.887l-5.027-5.027-10.3-10.3-15.324-15.323-7.561-7.561-7.762-7.762L228.878-17.647h19.429L289.56-171.6l15.323,15.323L267.736-17.647h19.429l38.649-144.24" transform="translate(805.576 717.05)" fill="#081536"/>
            <path id="path1042" d="M236.771-178.521,252.094-163.2,430.21-210.925v-19.429L236.771-178.521" transform="translate(831.274 642.466)" fill="#081536"/>
            <path id="path1044" d="M272.776-173.927,288.1-158.6l24.886-6.669V-184.7l-40.209,10.774" transform="translate(948.499 792.695)" fill="#081536"/>
            <path id="path1046" d="M253.838-167.737l5.457,5.458,15.323,15.323,12.4,12.4,2.922,2.923,116.825-31.3v-19.428l-111.216,29.8-15.323-15.323,126.539-33.905v-19.429L243.972-177.6l9.865,9.865" transform="translate(854.719 672.615)" fill="#081536"/>
            <path id="path1048" d="M309.952-150.727,294.629-166.05l65.246-17.483v-19.429l-101.5,27.2,10.612,10.613,4.711,4.71,15.323,15.323,13.146,13.147,2.177,2.177,55.532-14.88V-164.1l-49.923,13.377" transform="translate(901.61 732.723)" fill="#081536"/>
            <path id="path1050" d="M279.977-173.008l9.564,9.562V-175.57Z" transform="translate(971.944 822.705)" fill="#081536"/>
            <path id="path1052" d="M306.248-170.493l-20.933,5.609-95.525,25.6H262.3l17.4-4.662-1.251,4.662h19.43l2.755-10.271,5.614-20.933" transform="translate(662.892 839.503)" fill="#081536"/>
            <path id="path1054" d="M340.67-137.463l-.052-.054,0,0-46.4-46.4-5.609,20.932,15.815,15.815-42.454,11.386L284.571-220.1l40.942,40.942h0L361.6-143.076l20.927-5.614-15.32-15.318L290.18-241.035l-15.323-15.323-5.609,20.932-28.2,105.256-5.609,20.934,20.934-5.614,84.3-22.612" transform="translate(826.927 556.974)" fill="#081536"/>
            <path id="path1056" d="M113.722-174.777l-5.609,20.93-7.639,28.506H119.9l3.533-13.182,13.183,13.182H163.16l-34.115-34.114-15.323-15.323" transform="translate(349.808 825.472)" fill="#081536"/>
            <path id="path1058" d="M1.437-158.316h8.03l-6.333-6.333Z" transform="translate(4.679 858.641)" fill="#081536"/>
            <path id="path1060" d="M158.639-240.342,0-197.835v19.429l153.03-41L403.111,30.671,387.718,88.122h19.429l16.9-63.058-265.4-265.405" transform="translate(0 610.379)" fill="#081536"/>
            <path id="path1062" d="M91.334-181.32,0-156.85v12.125l.012.014,5.748,5.747,15.323,15.323,12.109,12.11,3.214,3.214,38.1-10.209L89-104.038h26.541l-35.42-35.42-38.1,10.209L26.692-144.573,85.724-160.39l56.352,56.352h26.54L91.334-181.32" transform="translate(0 804.038)" fill="#081536"/>
            <path id="path1064" d="M147.421-230.5,0-191v19.429l141.813-38L361.249,9.862,348.86,56.1h19.429L382.181,4.253,147.422-230.5" transform="translate(0 642.703)" fill="#081536"/>
            <path id="path1066" d="M150.457-107.729,85.683-172.5l-13.27-13.269L59.142-172.5l-13.271,13.27L32.6-145.964l0,0,13.27,13.271,0,0L87.663-90.9,87.3-89.54h19.429l1.868-6.971L59.142-145.964l13.27-13.271,57.113,57.115-3.371,12.58h19.429l4.873-18.189" transform="translate(106.132 789.447)" fill="#081536"/>
            <path id="path1068" d="M119.377-157.872l72.438,72.438,0,0,13.271,13.269L244.9-111.976l-.884-.884-12.386-12.386L136.2-220.668,0-184.172v19.428l130.6-34.992,87.759,87.76-13.27,13.27-80.1-80.1L0-145.315v19.429l119.377-31.986" transform="translate(0 674.64)" fill="#081536"/>
            <path id="path1070" d="M112.192-122.949l0,0,13.27,13.27,0,0,13.27-13.27L152-136.218l13.27-13.27L152-162.759l-38.235-38.235L0-170.511v19.429l108.16-28.981,30.573,30.574-13.27,13.27L102.551-159.13,0-131.653v19.428L96.942-138.2l15.25,15.249" transform="translate(0 739.274)" fill="#081536"/>
            <path id="path1072" d="M173.949-109.182l-69.766-69.767L90.914-192.218,77.643-178.949l-13.27,13.271L51.1-152.408l0,0,13.27,13.271,0,0,46.781,46.781-6.376,23.8h19.429l7.879-29.407L77.643-152.408l13.271-13.27,62.1,62.105-9.382,35.015h19.428l10.886-40.624" transform="translate(178.549 768.326)" fill="#081536"/>
            <path id="path1074" d="M476.891,70.3l35.644-9.55V41.326L482.5,49.373,232.418-200.708l33.659-125.614H246.647L211.486-195.1,476.891,70.3" transform="translate(748.95 326.322)" fill="#081536"/>
            <path id="path1076" d="M306.662-274.42l0,0-13.27-13.271-39.813,39.814.884.885,12.386,12.386,95.42,95.422,13.209-3.54v-19.429l-7.6,2.037-87.76-87.76,13.271-13.271,80.1,80.1,1.991-.533V-205.6L306.662-274.42" transform="translate(886.004 452.088)" fill="#081536"/>
            <path id="path1078" d="M312.1-293.927l-13.27,13.269L285.56-267.387l-13.27,13.27,13.27,13.271,29.008,29.008v-26.541L298.83-254.117l13.27-13.27,2.468,2.468v-26.547L312.1-293.93l0,0" transform="translate(946.916 431.784)" fill="#081536"/>
            <path id="path1080" d="M270.507-262.406l49.868,49.868v-26.539l-28.936-28.936,15.623-58.308H287.633l-17.126,63.916" transform="translate(941.11 326.322)" fill="#081536"/>
            <path id="path1082" d="M288.347-283.083v-37.875l-8,29.871Z" transform="translate(973.137 343.786)" fill="#081536"/>
            <path id="path1084" d="M231.159-217.535l69.765,69.765L314.195-134.5l13.271-13.271,13.27-13.269,13.271-13.271,0,0-13.271-13.27,0,0-46.781-46.781,24.64-91.961H299.166l-26.143,97.569,54.442,54.444-13.271,13.271-62.1-62.105,27.646-103.178H260.308L231.16-217.535" transform="translate(813.004 326.322)" fill="#081536"/>
            <path id="path1086" d="M250.833-239.97,315.609-175.2l13.27,13.271L342.15-175.2l13.271-13.269,13.269-13.271,0,0-13.269-13.27,0,0L313.629-256.8l18.629-69.525H312.829L292.7-251.188l49.453,49.453-13.27,13.271-57.115-57.115L293.4-326.322H273.972L250.833-239.97" transform="translate(877.057 326.322)" fill="#081536"/>
            <path id="path1088" d="M456.082,28.441,480.508,21.9V2.468L461.691,7.509,242.255-211.926l30.652-114.4H253.477l-32.154,120L456.082,28.441" transform="translate(780.977 326.322)" fill="#081536"/>
            <path id="path1090" d="M236.352-288.531l-15.814-15.815-20.932,5.609,46.4,46.4,0,0,.054.053,19.857-74.029H246.488l-10.136,37.791" transform="translate(695.09 326.322)" fill="#081536"/>
            <path id="path1092" d="M182.585-318.106l15.323,15.323,77.027,77.027,15.318,15.318,5.614-20.927-36.085-36.085h0l-40.942-40.941,66.917-17.931h-72.51l-9.73,2.608-20.932,5.608" transform="translate(637.601 326.322)" fill="#081536"/>
            <path id="path1094" d="M91.306,49.833l88.73-331.147-15.323-15.323L70.374,55.44,286.341,271.407h26.541L91.306,49.833" transform="translate(247.992 422.97)" fill="#081536"/>
            <path id="path1096" d="M383.812-177.312,159.053-117.088h72.509l167.573-44.9-15.323-15.324" transform="translate(560.385 817.169)" fill="#081536"/>
            <path id="path1098" d="M625.183,172.416l-9.865-9.866-5.457-5.457L594.538,141.77l-12.4-12.4-2.923-2.923L331.8,192.743l-87.76-87.76,13.27-13.271,80.1,80.1,226.486-60.686-10.612-10.612L548.568,95.8,533.245,80.479,520.1,67.331l-2.177-2.176L354.231,109.015,323.657,78.441l13.27-13.269L359.84,88.083,502.6,49.833,487.276,34.509,365.449,67.151,350.2,51.9l0,0L336.93,38.628l0,0L323.657,51.9l-13.27,13.27L297.116,78.442l13.271,13.27,38.235,38.235L512.313,86.086l15.323,15.323-184.623,49.47L270.577,78.442l0,0L257.309,65.169l-39.814,39.813.886.884,12.385,12.386,95.422,95.422,247.419-66.3L588.929,162.7l-268.351,71.9L101.142,15.17l71.9-268.351,15.323,15.324L122.074,9.561l69.765,69.766L205.11,92.6l13.27-13.269,13.269-13.271,13.27-13.27,0,0-13.27-13.27,0,0L184.868-7.265l49.47-184.623,15.323,15.323L205.8-12.874,270.576,51.9l13.27,13.271L297.116,51.9l13.27-13.271,13.271-13.271,0,0L310.389,12.087l0,0L268.6-29.7,295.63-130.6l15.323,15.324L289.528-35.309l81.528,81.53,100.9-27.035L462.378,9.61l-5.747-5.747L441.308-11.46,429.2-23.57l-3.214-3.214-38.1,10.209-35.561-35.56,4.6-17.17,32.72,32.721L410.569-42.2,362.531-90.236l-3-3-12.328-12.328L331.392-46.527,382.274,4.357l38.1-10.208L435.7,9.472,376.665,25.289,310.46-40.918l21.424-79.964-5.966-5.968-9.357-9.356-15.323-15.323-8.5-8.5-6.822-6.822-4.994,18.638-1.455,1.455.839.839L247.664-24.091l49.452,49.452-13.269,13.27L226.732-18.483l43.861-163.691-4.391-4.39L255.27-197.5,239.947-212.82l-6.926-6.926-8.4-8.4L163.936-1.656,218.38,52.786,205.11,66.057,143,3.952l66.3-247.418-5.027-5.026-10.3-10.3-15.323-15.323-7.561-7.562-7.762-7.762L80.211,20.779,307.394,247.963h35.843l281.946-75.547" transform="translate(292.572 446.415)" fill="#081536"/>
            <path id="path1100" d="M447.736-321.922,95.659-227.584l15.323,15.323,331.145-88.73L692.21-50.909,603.48,280.237,618.8,295.56,713.142-56.518l-265.405-265.4" transform="translate(371.844 340.647)" fill="#081536"/>
            <path id="path1102" d="M413.073-312.085,102.86-228.963l9.865,9.865,5.457,5.457,15.323,15.323,12.4,12.4,2.923,2.923,247.419-66.3,87.76,87.76-13.27,13.271-80.1-80.1L164.151-167.671l10.613,10.612,4.71,4.711L194.8-137.026l13.147,13.146,2.177,2.177,163.691-43.859,30.574,30.574-13.27,13.269L368.2-144.63l-142.76,38.25,15.323,15.323L362.595-123.7l15.251,15.251,0,0,13.27,13.271,0,0,13.271-13.27,13.269-13.271,13.271-13.269-13.271-13.271-38.234-38.235L215.729-142.633l-15.323-15.324L385.03-207.426l72.438,72.437,0,0,13.271,13.271,39.813-39.813-.884-.884L497.279-174.8l-95.422-95.422-247.419,66.3-15.323-15.323,268.349-71.9L626.9-71.717,555,196.633,539.674,181.31l66.3-247.418L536.2-135.874l-13.27-13.27-13.27,13.27L496.393-122.6l-13.27,13.27,0,0L496.39-96.06l0,0,46.781,46.781L493.705,135.341l-15.323-15.323L522.243-43.673l-64.776-64.776L444.2-121.719l-13.271,13.271-13.27,13.27L404.386-81.908l0,0,13.271,13.271v0l41.792,41.79L432.412,74.05,417.089,58.726l21.426-79.964-81.53-81.53L256.09-75.733l9.576,9.574,5.747,5.749,15.323,15.323,12.11,12.11,3.214,3.213,38.1-10.208,35.56,35.56-4.6,17.168L338.4-19.963,317.473-14.35l48.039,48.039,3,3,12.328,12.328,15.817-59.033L345.769-60.9,307.668-50.7,292.345-66.019l59.033-15.817,66.205,66.207L396.159,64.335l5.967,5.968,9.356,9.355L426.8,94.982l8.5,8.5,6.822,6.822,4.993-18.638,1.455-1.455-.839-.839L480.379-32.456,430.926-81.908,444.2-95.178l57.115,57.115L457.45,125.628l4.391,4.39,10.931,10.933L488.1,156.273l6.926,6.924,8.4,8.4L564.105-54.891l-54.442-54.442,13.271-13.27,62.1,62.1-66.3,247.419,5.027,5.026,10.3,10.3,15.324,15.323,7.561,7.561,7.762,7.762L647.833-77.326l-234.76-234.76" transform="translate(375.187 372.673)" fill="#081536"/>
            <path id="path1104" d="M62.4-218.262l-20.932,5.609L56.8-197.33,133.821-120.3l15.32,15.318,5.614-20.928L118.67-162h0L77.728-202.939l84.318-22.592-11.386,42.452-15.815-15.814-20.932,5.607,46.4,46.4.006-.006.053.053,22.612-84.3,5.615-20.933-20.933,5.609L62.4-218.262" transform="translate(135.027 571.099)" fill="#081536"/>
            <path id="path1106" d="M94.324-228.639l20.933-5.615,84.3-22.612-.054-.053.006,0-46.4-46.4L147.5-282.389l15.814,15.815-42.452,11.386,19.06-71.134H120.5L99.933-249.573l-5.609,20.933" transform="translate(329.223 326.322)" fill="#081536"/>
            <path id="path1108" d="M136.726-298.565h0l36.085,36.087,20.926-5.614-15.318-15.32-42.91-42.91H108.967l27.759,27.757" transform="translate(379.864 326.322)" fill="#081536"/>
            <path id="path1110" d="M301.112-258.893,0-178.21v19.429L316.435-243.57l-15.323-15.323" transform="translate(0 548.518)" fill="#081536"/>
            <path id="path1112" d="M9.227-222.9l163.692-43.861,15.323,15.323L3.619-201.972,0-205.591v24.017l224.5-60.153L213.885-252.34l-4.711-4.71-15.323-15.323L180.7-285.52l-2.177-2.177L14.836-243.836,0-258.673v26.541L9.227-222.9" transform="translate(0 452.077)" fill="#081536"/>
            <path id="path1114" d="M20.445-241.323,163.2-279.575,147.881-294.9,26.053-262.255,10.8-277.506h0L0-288.314v26.547l20.445,20.444" transform="translate(0 428.633)" fill="#081536"/>
            <path id="path1116" d="M31.662-180.876l100.9-27.034-9.575-9.576-5.748-5.747-15.323-15.323L89.8-250.666l-3.214-3.214-38.1,10.209L12.928-279.232l4.6-17.168,32.72,32.721,20.927-5.613L23.137-317.332l-3-3-5.994-5.993H6.116L0-303.494v37.875L42.879-222.74l38.1-10.208L96.3-217.625,37.271-201.807,0-239.078v26.539l31.662,31.662" transform="translate(0 326.322)" fill="#081536"/>
            <path id="path1118" d="M275.922-237.191l-5.457-5.457-15.323-15.323-12.4-12.4-2.923-2.923L0-209.036v19.429l234.21-62.755,15.324,15.323L0-170.178v19.429l285.789-76.577-9.867-9.865" transform="translate(0 501.097)" fill="#081536"/>
            <path id="path1120" d="M89.2-37.3l77.441-289.017H147.208L73.871-52.628,89.2-37.3" transform="translate(257.642 326.322)" fill="#081536"/>
            <path id="path1122" d="M59.47-113.919l5.027,5.027,10.3,10.3L90.115-83.273l7.561,7.561,7.762,7.762,69.231-258.371H155.24L95.724-104.205,80.4-119.528,135.81-326.322H116.383L59.47-113.919" transform="translate(207.697 326.322)" fill="#081536"/>
            <path id="path1124" d="M52.091-316.469,30.666-236.5l5.966,5.966,9.357,9.357,15.322,15.323,8.5,8.5,6.822,6.824,4.993-18.638,1.453-1.455-.839-.841,30.775-114.855H93.588L66.92-226.789,51.6-242.112l21.426-79.964-4.246-4.246H42.236l9.854,9.853" transform="translate(99.84 326.322)" fill="#081536"/>
            <path id="path1126" d="M65.823-288.082,33.1-320.8l-20.927,5.613L60.215-267.15l3,3,12.328,12.328,15.817-59.033L75.892-326.322H49.352L70.423-305.25l-4.6,17.168" transform="translate(39.644 326.322)" fill="#081536"/>
            <path id="path1128" d="M45.068-175.21l4.39,4.39L60.39-159.887l15.323,15.323,6.924,6.924,8.4,8.4,52.807-197.08H124.414L81.322-165.5,66-180.821l38.987-145.5H85.556L45.068-175.21" transform="translate(157.24 326.322)" fill="#081536"/>
            <path id="path1130" d="M355.063-326.322H282.554L176.168-297.816l-28.506-28.506H121.12l49.438,49.438,184.5-49.438" transform="translate(426.533 326.322)" fill="#081536"/>
            <path id="path1132" d="M169.436-326.322H133.593l7.574,7.574Z" transform="translate(464.419 326.322)" fill="#081536"/>
            <path id="path1134" d="M278.925-51.9,219.748,168.96h19.429L294.248-36.572,278.925-51.9" transform="translate(765.589 1231.745)" fill="#081536"/>
            <path id="path1136" d="M327.651,15.678l-4.391-4.391L312.328.355,297.005-14.97l-6.926-6.924-8.4-8.4L247.139,98.626h19.429L291.4,5.964l15.323,15.323L286,98.626h19.428l22.226-82.948" transform="translate(865.031 1302.079)" fill="#081536"/>
            <path id="path1138" d="M323.522,24.112l-9.356-9.356L298.843-.568l-8.5-8.5L283.52-15.89,278.527,2.748,277.072,4.2l.839.839L265.4,51.735h19.429l8.406-31.371,15.323,15.323-4.3,16.048h19.429l5.8-21.657-5.966-5.967" transform="translate(924.485 1348.969)" fill="#081536"/>
            <path id="path1140" d="M325.815,1.274l-5.027-5.026-10.3-10.3L295.167-29.372l-7.561-7.561-7.762-7.762-50.967,190.21h19.429L289.56-8.44,304.883,6.883,267.736,145.515h19.429L325.815,1.274" transform="translate(805.576 1255.189)" fill="#081536"/>
            <path id="path1142" d="M236.771-15.361,252.094-.038,430.21-47.765V-67.193L236.771-15.361" transform="translate(831.274 1179.962)" fill="#081536"/>
            <path id="path1144" d="M272.776-10.766,288.1,4.556l24.886-6.668V-21.54L272.776-10.766" transform="translate(948.499 1330.575)" fill="#081536"/>
            <path id="path1146" d="M253.838-4.576,259.295.881,274.618,16.2l12.4,12.4,2.922,2.922L406.766.225V-19.2L295.55,10.6,280.227-4.727,406.766-38.633V-58.062L243.972-14.442l9.865,9.865" transform="translate(854.719 1211.666)" fill="#081536"/>
            <path id="path1148" d="M309.952,12.433,294.629-2.89l65.246-17.482V-39.8l-101.5,27.2L268.986-1.992,273.7,2.719,289.02,18.042l13.146,13.146,2.177,2.177,55.532-14.88V-.945L309.952,12.433" transform="translate(901.61 1271.121)" fill="#081536"/>
            <path id="path1150" d="M279.977-9.848l9.564,9.563V-12.409Z" transform="translate(971.944 1360.302)" fill="#081536"/>
            <path id="path1152" d="M306.248-7.333l-20.933,5.61-95.525,25.6H262.3l17.4-4.663-1.251,4.663h19.43L300.635,13.6l5.614-20.933" transform="translate(662.892 1376.831)" fill="#081536"/>
            <path id="path1154" d="M340.67,25.7l-.052-.053,0-.006-46.4-46.4L288.617.174l15.815,15.814L261.978,27.374l22.593-84.316L325.513-16h0L361.6,20.083l20.927-5.612L367.205-.849,290.18-77.874,274.857-93.2l-5.609,20.932-28.2,105.254-5.609,20.935,20.934-5.615,84.3-22.612" transform="translate(826.927 1094.874)" fill="#081536"/>
            <path id="path1156" d="M113.722-11.617,108.113,9.315l-7.639,28.506H119.9l3.533-13.184,13.183,13.184H163.16L129.045,3.706,113.722-11.617" transform="translate(349.808 1362.883)" fill="#081536"/>
            <path id="path1158" d="M1.437,4.846h8.03L3.134-1.488Z" transform="translate(4.679 1395.859)" fill="#081536"/>
            <path id="path1160" d="M158.639-77.181,0-34.673v19.428l153.03-41L403.111,193.833l-15.393,57.451h19.429l16.9-63.06L158.639-77.181" transform="translate(0 1149.42)" fill="#081536"/>
            <path id="path1162" d="M91.334-18.16,0,6.312V18.438l.012.012L5.76,24.2,21.084,39.519l12.109,12.11,3.214,3.214,38.1-10.207L89,59.124h26.541L80.116,23.7l-38.1,10.208L26.692,18.59,85.724,2.772l56.352,56.352h26.54L91.334-18.16" transform="translate(0 1341.58)" fill="#081536"/>
            <path id="path1164" d="M147.421-67.344,0-27.843V-8.414l141.813-38L361.249,173.023,348.86,219.257h19.429l13.892-51.842L147.421-67.344" transform="translate(0 1181.447)" fill="#081536"/>
            <path id="path1166" d="M150.457,55.432,85.683-9.342l-13.27-13.27L59.142-9.342,45.871,3.928,32.6,17.2l0,0,13.27,13.27,0,0L87.663,72.259,87.3,73.623h19.429l1.868-6.973L59.142,17.2,72.412,3.928l57.113,57.113-3.371,12.581h19.429l4.873-18.19" transform="translate(106.132 1327.082)" fill="#081536"/>
            <path id="path1168" d="M119.377,5.287l72.438,72.438,0,0L205.082,91,244.9,51.184l-.884-.884L231.625,37.915,136.2-57.507,0-21.012V-1.583L130.6-36.575l87.759,87.759-13.27,13.27-80.1-80.1L0,17.846V37.275L119.377,5.287" transform="translate(0 1213.474)" fill="#081536"/>
            <path id="path1170" d="M112.192,40.213l0,0,13.27,13.269,0,0,13.27-13.271L152,26.942l13.27-13.27L152,.4,113.769-37.834,0-7.35v19.43L108.16-16.9l30.573,30.574-13.27,13.27L102.551,4.03,0,31.508V50.937L96.942,24.962l15.25,15.25" transform="translate(0 1277.527)" fill="#081536"/>
            <path id="path1172" d="M173.949,53.978,104.183-15.787,90.914-29.057,77.643-15.787,64.373-2.516,51.1,10.753l0,0,13.27,13.27,0,0,46.781,46.782-6.376,23.8h19.429L132.085,65.2,77.643,10.753,90.914-2.516l62.1,62.1L143.635,94.6h19.428l10.886-40.625" transform="translate(178.549 1306.101)" fill="#081536"/>
            <path id="path1174" d="M476.891,233.466l35.644-9.55V204.487L482.5,212.535,232.418-37.547l33.659-125.614H246.647L211.486-31.938l265.405,265.4" transform="translate(748.95 865.901)" fill="#081536"/>
            <path id="path1176" d="M306.662-111.259l0,0-13.27-13.27L253.581-84.719l.884.886,12.386,12.385,95.42,95.422,13.209-3.539V1.005l-7.6,2.036-87.76-87.76,13.271-13.27,80.1,80.1,1.991-.533V-42.441l-68.819-68.818" transform="translate(886.004 991.579)" fill="#081536"/>
            <path id="path1178" d="M312.1-130.766,298.83-117.5l-13.269,13.27-13.27,13.27,13.27,13.269,29.008,29.008V-75.217L298.83-90.954l13.27-13.27,2.468,2.467V-128.3l-2.465-2.465,0,0" transform="translate(946.916 970.611)" fill="#081536"/>
            <path id="path1180" d="M270.507-99.244l49.868,49.868V-75.917l-28.936-28.936,15.623-58.308H287.633L270.507-99.244" transform="translate(941.11 864.046)" fill="#081536"/>
            <path id="path1182" d="M288.347-119.922V-157.8l-8,29.873Z" transform="translate(973.137 881.346)" fill="#081536"/>
            <path id="path1184" d="M231.159-54.374l69.765,69.766,13.271,13.27,13.271-13.27,13.27-13.27,13.271-13.27,0,0-13.271-13.27,0,0L293.955-71.2l24.64-91.961H299.166l-26.143,97.57,54.442,54.442L314.195,2.122l-62.1-62.1,27.646-103.179H260.308L231.16-54.374" transform="translate(813.004 864.47)" fill="#081536"/>
            <path id="path1186" d="M250.833-76.809l64.776,64.776,13.27,13.27,13.271-13.27L355.421-25.3l13.269-13.27,0,0L355.423-51.846h0l-41.792-41.79,18.629-69.526H312.829L292.7-88.026,342.15-38.574,328.88-25.3,271.765-82.417,293.4-163.161H273.972L250.833-76.809" transform="translate(877.057 864.315)" fill="#081536"/>
            <path id="path1188" d="M456.082,191.6l24.426-6.546V165.63l-18.817,5.042L242.255-48.765l30.652-114.4H253.477l-32.154,120L456.082,191.6" transform="translate(780.977 865.563)" fill="#081536"/>
            <path id="path1190" d="M236.352-125.37l-15.814-15.814-20.932,5.609,46.4,46.4,0-.006.054.054,19.857-74.03H246.488L236.352-125.37" transform="translate(695.09 863.849)" fill="#081536"/>
            <path id="path1192" d="M182.585-154.944l15.323,15.323L274.935-62.6l15.318,15.32L295.867-68.2l-36.085-36.085h0L218.839-145.23l66.917-17.931h-72.51l-9.73,2.608-20.932,5.609" transform="translate(637.601 864.057)" fill="#081536"/>
            <path id="path1194" d="M91.306,212.992l88.73-331.145-15.323-15.323L70.374,218.6,286.341,434.568h26.541L91.306,212.992" transform="translate(247.992 966.136)" fill="#081536"/>
            <path id="path1196" d="M383.812-14.151,159.053,46.073h72.509l167.573-44.9L383.812-14.151" transform="translate(560.385 1354.632)" fill="#081536"/>
            <path id="path1198" d="M625.183,335.577l-9.865-9.867-5.457-5.456-15.323-15.323-12.4-12.4-2.923-2.923L331.8,355.9l-87.76-87.76,13.27-13.269,80.1,80.1,226.486-60.686-10.612-10.612-4.711-4.711-15.323-15.323L520.1,230.493l-2.177-2.177L354.231,272.176,323.657,241.6l13.27-13.27,22.912,22.912L502.6,212.993,487.276,197.67,365.449,230.312,350.2,215.062l0,0-13.271-13.27,0,0-13.271,13.271-13.27,13.27L297.116,241.6l13.271,13.271,38.235,38.235,163.691-43.861,15.323,15.323L343.012,314.039,270.577,241.6l0,0-13.271-13.27-39.814,39.813.886.886,12.385,12.384,95.422,95.422,247.419-66.3,15.323,15.323-268.351,71.9L101.142,178.329l71.9-268.349L188.368-74.7,122.074,172.722l69.765,69.765,13.27,13.27,13.271-13.27,13.269-13.271,13.27-13.27,0,0-13.27-13.269h0l-46.781-46.781,49.47-184.623,15.323,15.323L205.8,150.287l64.776,64.774,13.27,13.271,13.269-13.271,13.27-13.27,13.27-13.27,0,0-13.27-13.27,0,0L268.6,133.46l27.034-100.9,15.323,15.323-21.424,79.964,81.528,81.53,100.9-27.033-9.576-9.576-5.747-5.749L441.308,151.7,429.2,139.592l-3.215-3.214-38.1,10.208-35.561-35.56,4.6-17.168,32.721,32.719,20.926-5.614L362.531,72.925l-3-3L347.207,57.6l-15.815,59.033,50.882,50.882,38.1-10.208L435.7,172.632l-59.033,15.817L310.46,122.243l21.424-79.965-5.966-5.966-9.356-9.356L301.239,11.632l-8.5-8.5-6.822-6.822-4.994,18.638L279.467,16.4l.839.841L247.664,139.069l49.452,49.452-13.269,13.27-57.115-57.113L270.593-19.013,266.2-23.4,255.27-34.338,239.947-49.661l-6.926-6.924-8.4-8.4L163.937,161.5l54.444,54.442-13.27,13.27L143,167.113,209.3-80.306l-5.027-5.027-10.3-10.3-15.323-15.323-7.561-7.561-7.762-7.762L80.211,183.939,307.394,411.124h35.843l281.946-75.547" transform="translate(292.572 989.581)" fill="#081536"/>
            <path id="path1200" d="M447.736-158.761,95.659-64.422,110.982-49.1l331.145-88.73L692.21,112.253,603.48,443.4,618.8,458.721l94.339-352.077L447.736-158.761" transform="translate(371.844 883.812)" fill="#081536"/>
            <path id="path1202" d="M413.073-148.924,102.86-65.8l9.865,9.865,5.457,5.457,15.323,15.323,12.4,12.4,2.923,2.923,247.419-66.3,87.76,87.76L470.737,14.9l-80.1-80.1L164.151-4.511,174.765,6.1l4.71,4.71L194.8,26.136l13.147,13.146,2.177,2.177L373.813-2.4l30.574,30.574-13.27,13.27L368.2,18.53,225.444,56.781,240.767,72.1,362.595,39.462l15.251,15.251h0l13.27,13.27,0,0,13.271-13.269,13.269-13.27,13.271-13.27L417.656,14.9,379.422-23.334,215.729,20.527,200.406,5.2,385.03-44.266l72.438,72.438,0,0,13.271,13.27L510.548,1.631l-.884-.884L497.279-11.64l-95.422-95.42L154.438-40.766,139.115-56.089l268.349-71.9L626.9,91.443,555,359.794l-15.323-15.323,66.3-247.419L536.2,27.287l-13.27-13.27-13.27,13.27-13.271,13.27-13.27,13.269,0,0L496.39,67.1l0,0,46.781,46.781L493.705,298.5l-15.323-15.323,43.861-163.691L457.467,54.712,444.2,41.442l-13.271,13.27-13.27,13.269-13.269,13.27,0,0,13.271,13.27v0l41.792,41.792-27.035,100.9-15.323-15.323,21.426-79.965-81.53-81.528L256.09,87.427,265.665,97l5.747,5.747,15.323,15.323,12.11,12.11,3.214,3.214,38.1-10.209,35.56,35.561-4.6,17.168L338.4,143.2l-20.927,5.615,48.039,48.037,3,3,12.328,12.328,15.817-59.033-50.882-50.882-38.1,10.208L292.345,97.142l59.033-15.817,66.205,66.205L396.159,227.5l5.967,5.966,9.356,9.356L426.8,258.142l8.5,8.5,6.822,6.822,4.993-18.638,1.455-1.455-.839-.839L480.379,130.7,430.926,81.252,444.2,67.981,501.311,125.1,457.45,288.787l4.391,4.392,10.931,10.931L488.1,319.433l6.926,6.926,8.4,8.4L564.105,108.27,509.663,53.826l13.271-13.269,62.1,62.1-66.3,247.419,5.027,5.027,10.3,10.3,15.324,15.323,7.561,7.561,7.762,7.762L647.833,85.834,413.073-148.924" transform="translate(375.187 915.838)" fill="#081536"/>
            <path id="path1204" d="M62.4-55.1,41.473-49.492,56.8-34.169l77.026,77.026,15.32,15.32,5.614-20.927L118.67,1.164h0L77.728-39.778,162.045-62.37,150.659-19.917,134.844-35.732l-20.932,5.609,46.4,46.4.006-.006.053.054,22.612-84.3,5.615-20.933L167.66-83.3,62.4-55.1" transform="translate(135.027 1108.998)" fill="#081536"/>
            <path id="path1206" d="M94.324-65.477l20.933-5.615,84.3-22.612-.054-.054.006,0-46.4-46.4L147.5-119.227l15.814,15.814L120.866-92.027l19.06-71.134H120.5L99.933-86.412,94.324-65.477" transform="translate(329.223 863.965)" fill="#081536"/>
            <path id="path1208" d="M136.726-135.4h0l36.085,36.085,20.926-5.614-15.318-15.318-42.91-42.912H108.967L136.726-135.4" transform="translate(379.864 863.801)" fill="#081536"/>
            <path id="path1210" d="M301.112-95.731,0-15.05V4.379L316.435-80.409,301.112-95.731" transform="translate(0 1086.174)" fill="#081536"/>
            <path id="path1212" d="M9.227-59.745,172.919-103.6l15.323,15.323L3.619-38.813,0-42.431v24.017L224.5-78.567,213.885-89.179l-4.711-4.711-15.323-15.323L180.7-122.359l-2.177-2.177L14.836-80.676,0-95.511v26.539l9.227,9.227" transform="translate(0 991.295)" fill="#081536"/>
            <path id="path1214" d="M20.445-78.162,163.2-116.414l-15.324-15.323L26.053-99.094,10.8-114.345l0,0L0-125.153v26.546L20.445-78.162" transform="translate(0 967.261)" fill="#081536"/>
            <path id="path1216" d="M31.662-17.714l100.9-27.035-9.575-9.574-5.748-5.749L101.912-75.395,89.8-87.5l-3.214-3.214L48.489-80.51l-35.561-35.56,4.6-17.168,32.72,32.719,20.927-5.614L23.137-154.171l-3-3-5.994-5.995H6.116L0-140.333v37.875l42.879,42.88,38.1-10.208L96.3-54.463,37.271-38.646,0-75.917v26.541L31.662-17.714" transform="translate(0 864.212)" fill="#081536"/>
            <path id="path1218" d="M275.922-74.031l-5.457-5.457L255.142-94.811l-12.4-12.4-2.923-2.923L0-45.874v19.429L234.21-89.2l15.324,15.323L0-7.016V12.412L285.789-64.164l-9.867-9.867" transform="translate(0 1038.866)" fill="#081536"/>
            <path id="path1220" d="M89.2,125.857l77.441-289.019H147.208l-73.337,273.7L89.2,125.858" transform="translate(257.642 865.083)" fill="#081536"/>
            <path id="path1222" d="M59.47,49.242,64.5,54.268l10.3,10.3L90.115,79.889l7.561,7.561,7.762,7.762,69.231-258.373H155.24L95.724,58.957,80.4,43.634l55.409-206.8H116.383L59.47,49.242" transform="translate(207.697 864.878)" fill="#081536"/>
            <path id="path1224" d="M52.091-153.306,30.666-73.341l5.966,5.966,9.357,9.356L61.311-42.7l8.5,8.5,6.822,6.822L81.628-46.01l1.453-1.455-.839-.839,30.775-114.857H93.588L66.92-63.627,51.6-78.95l21.426-79.965-4.246-4.246H42.236l9.854,9.855" transform="translate(99.84 864.16)" fill="#081536"/>
            <path id="path1226" d="M65.823-124.92,33.1-157.641l-20.927,5.614,48.038,48.039,3,3L75.538-88.665,91.355-147.7,75.892-163.161H49.352l21.072,21.073-4.6,17.168" transform="translate(39.644 863.851)" fill="#081536"/>
            <path id="path1228" d="M45.068-12.05l4.39,4.392L60.39,3.273,75.713,18.6l6.924,6.926,8.4,8.4,52.807-197.08H124.414L81.322-2.336,66-17.659l38.987-145.5H85.556L45.068-12.05" transform="translate(157.24 864.501)" fill="#081536"/>
            <path id="path1230" d="M355.063-163.161H282.554L176.168-134.655l-28.506-28.506H121.12l49.438,49.438,184.5-49.438" transform="translate(426.533 863.733)" fill="#081536"/>
            <path id="path1232" d="M169.436-163.161H133.593l7.574,7.576Z" transform="translate(464.419 863.546)" fill="#081536"/>
          </g>
        </g>
      </g>
    </g>
  </g>
</svg>
