<svg xmlns="http://www.w3.org/2000/svg" xmlns:xlink="http://www.w3.org/1999/xlink" width="60" height="60" viewBox="0 0 60 60">
  <defs>
    <clipPath id="clip-path">
      <rect id="Rectangle_993" data-name="Rectangle 993" width="40" height="29" transform="translate(-820 513)" fill="#081536"/>
    </clipPath>
  </defs>
  <g id="Visa_Icon" data-name="Visa Icon" transform="translate(-735 -910)">
    <circle id="Ellipse_533" data-name="Ellipse 533" cx="30" cy="30" r="30" transform="translate(735 910)" fill="#ffc0b4" opacity="0.5"/>
    <g id="Mask_Group_3" data-name="Mask Group 3" transform="translate(1565 413)" clip-path="url(#clip-path)">
      <g id="layer1" transform="translate(-820 485.857)">
        <path id="path21" d="M73.4,140.672a3.251,3.251,0,0,1-1.969-1.647c-.227-.426-.235-1.315-.235-26.458V86.549l.272-.5a3.452,3.452,0,0,1,1.429-1.4c.424-.226,1.119-.235,18.395-.235s17.971.009,18.395.235a3.452,3.452,0,0,1,1.429,1.4l.272.5v26.017c0,25.144-.008,26.032-.235,26.458a3.452,3.452,0,0,1-1.4,1.429l-.5.272-17.765.022c-9.771.012-17.907-.022-18.081-.075Zm35.725-2.208.309-.309v-24.58H73.145v24.58l.309.309.309.309h35.049ZM75.71,136.61a1.034,1.034,0,0,1-.409-.438c-.2-.431-.2-12.508,0-12.939a1.049,1.049,0,0,1,.447-.447c.43-.2,12.508-.2,12.938,0a1.049,1.049,0,0,1,.447.447c.2.43.2,12.508,0,12.938a1.049,1.049,0,0,1-.447.447c-.411.187-12.587.18-12.974-.007Zm1.946-2.4a5.209,5.209,0,0,1,1.684-2.315c.341-.25.6-.491.576-.534a2.982,2.982,0,0,1-.448-1.856,2.641,2.641,0,0,1,1.26-2.16,3.361,3.361,0,0,1,2.977,0,2.887,2.887,0,0,1,.812,4.016c-.024.044.235.284.576.534a5.093,5.093,0,0,1,1.671,2.315c.085.295.231.535.324.535.139,0,.169-.908.169-5.04v-5.04H77.176v5.04c0,3.962.034,5.04.158,5.04.087,0,.232-.241.321-.535Zm7.584.434a3.445,3.445,0,0,0-1.411-1.655,3.587,3.587,0,0,0-3.227,0,3.445,3.445,0,0,0-1.411,1.655,22.777,22.777,0,0,0,3.024.1A22.774,22.774,0,0,0,85.24,134.64ZM83.1,130.513a1.2,1.2,0,1,0-2.08-.819,1.055,1.055,0,0,0,1.191,1.141.99.99,0,0,0,.889-.322Zm8.727,6.094a.981.981,0,0,1,.1-1.745.963.963,0,0,1,.794,1.752.829.829,0,0,1-.89-.007Zm3.024,0a.981.981,0,0,1,.1-1.745.963.963,0,0,1,.794,1.752.829.829,0,0,1-.89-.007Zm3.024,0a.981.981,0,0,1,.1-1.745.963.963,0,0,1,.794,1.752.829.829,0,0,1-.89-.007Zm3.024,0a.981.981,0,0,1,.1-1.745.963.963,0,0,1,.794,1.752.829.829,0,0,1-.89-.007Zm3.024,0a.981.981,0,0,1,.1-1.745.963.963,0,0,1,.794,1.752.829.829,0,0,1-.89-.007Zm3.024,0a.981.981,0,0,1,.1-1.745.963.963,0,0,1,.794,1.752.829.829,0,0,1-.89-.007Zm-15.119-4.032a1.079,1.079,0,0,1-.425-.5.962.962,0,0,1,.462-1.228,29.947,29.947,0,0,1,4.458-.142,29.947,29.947,0,0,1,4.458.142.976.976,0,0,1,0,1.731A70.5,70.5,0,0,1,91.832,132.576Zm12.1,0a.982.982,0,0,1-.425-1.22c.211-.51.611-.646,1.9-.646s1.685.136,1.9.646a.963.963,0,0,1-.462,1.227,7.955,7.955,0,0,1-2.906-.007Zm-12.1-4.032a1.079,1.079,0,0,1-.425-.5.963.963,0,0,1,.462-1.228,29.951,29.951,0,0,1,4.458-.142,29.951,29.951,0,0,1,4.458.142.976.976,0,0,1,0,1.731,70.5,70.5,0,0,1-8.954-.007Zm12.1,0a.982.982,0,0,1-.425-1.22c.211-.51.611-.646,1.9-.646s1.685.136,1.9.646a.963.963,0,0,1-.462,1.227A7.954,7.954,0,0,1,103.927,128.544Zm-12.1-4.032a1.079,1.079,0,0,1-.425-.5.963.963,0,0,1,.462-1.228,29.949,29.949,0,0,1,4.458-.142,29.949,29.949,0,0,1,4.458.142.976.976,0,0,1,0,1.731,70.5,70.5,0,0,1-8.954-.007Zm12.1,0a.982.982,0,0,1-.425-1.22c.211-.51.611-.646,1.9-.646s1.685.136,1.9.646a.963.963,0,0,1-.462,1.227,7.955,7.955,0,0,1-2.906-.007ZM77.094,120.8a10.46,10.46,0,0,1-1.031-2.749c-.716-2.357-.751-2.531-.556-2.746a.68.68,0,0,1,.591-.192l.383.038.584,2.142.584,2.142.2-.693c.11-.381.345-1.232.523-1.89.427-1.581.513-1.764.827-1.764.372,0,.75.227.75.45,0,.272-1.5,5.132-1.621,5.253a1.166,1.166,0,0,1-1.233.009Zm7.827.075c-.767-.223-1.192-.951-.79-1.353.218-.218.452-.187.874.113.649.462,1.62.306,1.62-.261,0-.293-.294-.532-1.233-1-.919-.46-1.286-.952-1.287-1.726,0-.993.75-1.56,2.066-1.56,1.267,0,1.709.292,1.455.96-.11.289-.173.318-.532.243-1.009-.211-1.429-.217-1.59-.023-.292.351-.095.636.721,1.043.995.5,1.372.847,1.551,1.443A1.757,1.757,0,0,1,85.83,121a4.311,4.311,0,0,1-.909-.122Zm-3.527-.145c-.036-.093-.049-1.386-.03-2.874l.034-2.706h1.008v5.67l-.473.039c-.309.026-.5-.019-.538-.129Zm7.7-.045c-.117-.117-.187-.277-.156-.357s.381-1.221.778-2.535.779-2.461.849-2.548a1.46,1.46,0,0,1,1.348.022c.148.178,1.645,4.911,1.646,5.2,0,.2-.41.414-.809.414-.276,0-.342-.08-.466-.572l-.144-.572-.886.037-.886.037-.14.5c-.121.435-.194.509-.531.542a.763.763,0,0,1-.6-.174Zm2.7-2.012a11.945,11.945,0,0,0-.5-1.859c-.05-.056-.187.256-.306.693s-.244.893-.279,1.015c-.053.187.024.22.512.22A1.273,1.273,0,0,0,91.791,118.672Zm17.639-19.4V86.979l-.31-.309-.309-.309H73.763l-.309.309-.309.309v24.58H109.43ZM95.256,106.35a4.029,4.029,0,0,1-1.76-6.694,4.061,4.061,0,0,1,5.661,0,4.983,4.983,0,0,1,.807,1.182,4.073,4.073,0,0,1-.807,4.479,4.239,4.239,0,0,1-3.9,1.033Zm1.868-2.019a1.987,1.987,0,0,0,.6-3.245,1.907,1.907,0,0,0-2.8,0A2,2,0,0,0,97.125,104.331Zm5.943-4c-.393-.213-7.365-7.184-7.568-7.566-.35-.659-.255-.824,1.477-2.573,1.761-1.778,2.082-1.972,2.711-1.639.429.228,7.386,7.2,7.6,7.615.286.563.048.938-1.681,2.65s-1.941,1.836-2.535,1.513Zm1.2-3.07.686-.695L102.09,93.7l-2.863-2.863-.724.724-.724.724,2.833,2.835c1.558,1.559,2.863,2.835,2.9,2.835A5.95,5.95,0,0,0,104.267,97.256ZM81.758,95.284c-.487-.236-.55-.624-.55-3.38,0-2.8.06-3.148.587-3.388a102.04,102.04,0,0,1,10.922,0c.527.24.587.588.587,3.388s-.06,3.148-.587,3.388A107.33,107.33,0,0,1,81.758,95.284Zm9.53-3.38V90.392H83.224v3.024h8.063Z" transform="translate(-71.192 -84.407)" fill="#081536"/>
      </g>
    </g>
  </g>
</svg>
